<svg width="40" height="33" viewBox="0 0 40 33" fill="none" xmlns="http://www.w3.org/2000/svg">
<path d="M32.4106 12.8333C33.1258 14.0902 34.3026 15.0099 35.6845 15.3921C37.0664 15.7743 38.5414 15.588 39.7883 14.8738C39.9349 16.2005 39.6692 17.5405 39.0283 18.7071C38.3874 19.8737 37.4031 20.8088 36.2126 21.3822L36.2108 33H23.5375V29.3333C23.5378 28.4083 23.1928 27.5173 22.5717 26.839C21.9505 26.1607 21.0991 25.7452 20.1882 25.6758L19.9166 25.6667C19.0031 25.6664 18.1232 26.0157 17.4534 26.6447C16.7836 27.2737 16.3733 28.1359 16.3047 29.0583L16.2957 29.3333V33H3.62244V21.384C2.42961 20.8114 1.44315 19.8759 0.800808 18.7081C0.158466 17.5403 -0.107681 16.1986 0.0395344 14.8702C1.28628 15.5858 2.76188 15.7733 4.14459 15.3918C5.52729 15.0102 6.70496 14.0906 7.42079 12.8333H32.4106ZM30.6527 16.5H9.17875L9.04116 16.6448C8.26085 17.4148 7.34838 18.0382 6.35081 18.4818L6.17701 18.5533L7.24337 19.0667L7.24156 29.3333L12.6766 29.3315V29.1995L12.6947 28.7907C12.9644 25.0947 15.9173 22.1925 19.6722 22.011L20.0488 22.0018L20.4525 22.0202C22.2125 22.1524 23.8642 22.9308 25.0974 24.2093C26.3306 25.4877 27.0603 27.1782 27.1494 28.963L27.1567 29.3315L32.5899 29.3333L32.5917 19.0667L33.6544 18.5533L33.4824 18.48C32.4839 18.0372 31.5725 17.4155 30.7921 16.6448L30.6527 16.5ZM29.0341 0C29.1636 0.909516 29.4845 1.78026 29.9751 2.55331C30.4657 3.32637 31.1145 3.9837 31.8777 4.48084C32.6409 4.97799 33.5006 5.30334 34.3988 5.43489C35.2969 5.56643 36.2124 5.50111 37.0834 5.24333C36.9284 6.76239 36.2435 8.17566 35.1517 9.22915C34.0599 10.2826 32.6328 10.9073 31.127 10.9908L30.7794 11H9.05383C7.48592 11.0003 5.97359 10.4119 4.80921 9.34858C3.64482 8.2853 2.91107 6.82263 2.7498 5.24333C3.62082 5.50111 4.53636 5.56643 5.43447 5.43489C6.33258 5.30334 7.19231 4.97799 7.9555 4.48084C8.71869 3.9837 9.36753 3.32637 9.85812 2.55331C10.3487 1.78026 10.6696 0.909516 10.7991 0H29.0341ZM26.4343 3.66667H13.3971C12.7449 4.95999 11.8247 6.0956 10.6995 6.996L10.2505 7.33333H29.5809L29.5591 7.31867C28.3946 6.48502 27.4199 5.40856 26.7004 4.16167L26.4343 3.66667Z" fill="#01B7E7"/>
</svg>
