<svg width="42" height="33" viewBox="0 0 42 33" fill="none" xmlns="http://www.w3.org/2000/svg">
<path fill-rule="evenodd" clip-rule="evenodd" d="M3.52223 11.0218L3.5938 11.0213V24.1449L5.4589 22.2243C6.48457 21.1681 7.34643 20.3037 7.37415 20.3037C7.43891 20.3037 9.85137 22.7891 9.85137 22.8558C9.85137 22.8836 8.2219 24.5887 6.23029 26.6453C4.23868 28.7019 2.03817 30.9825 1.34011 31.7131C0.642053 32.4438 0.0526073 33.0227 0.0301787 32.9993C0.00775014 32.9762 -0.00510206 28.0278 0.00195412 22.0029L0.00523032 19.0321C-0.0121581 13.1222 0.0155631 0.269337 0.0624362 0.269337C0.091417 0.269337 2.32545 2.5385 5.02696 5.31227C7.72822 8.08577 10.62 11.0485 11.4529 11.896C12.2857 12.7438 12.9672 13.4625 12.9672 13.4937C12.9672 13.5245 12.9279 13.5855 12.8795 13.6292C12.8313 13.673 12.4092 14.1247 11.9413 14.6332C11.4733 15.1419 10.9549 15.7042 10.7896 15.8827L10.4887 16.208L9.9615 15.6509C8.94188 14.5735 4.27523 9.62347 3.90528 9.22684L3.5308 8.82555L3.52223 11.0218ZM17.5728 8.85514V21.9787L17.6444 21.9782L17.6358 24.1744L17.2616 23.7732C16.8914 23.3765 12.2248 18.4263 11.2051 17.3491L10.6779 16.792L10.3771 17.1173C10.2117 17.2958 9.69336 17.8581 9.22538 18.3668C8.75741 18.8753 8.3353 19.327 8.28717 19.3708C8.23878 19.4145 8.19947 19.4755 8.19947 19.5063C8.19947 19.5375 8.88089 20.2562 9.71377 21.104C10.5467 21.9515 13.4384 24.9142 16.1397 27.6877C18.8412 30.4615 21.0752 32.7307 21.1042 32.7307C21.1511 32.7307 21.179 19.878 21.1614 13.9679L21.1649 10.9971C21.1717 4.97223 21.1591 0.0237848 21.1365 0.000683018C21.114 -0.0226783 20.5246 0.556161 19.8265 1.28685C19.1285 2.01754 16.928 4.29812 14.9363 6.3547C12.9447 8.41101 11.3153 10.1164 11.3153 10.1442C11.3153 10.2109 13.7277 12.6963 13.7925 12.6963C13.8202 12.6963 14.6821 11.8319 15.7077 10.7757L17.5728 8.85514Z" fill="#01B7E7"/>
<path fill-rule="evenodd" clip-rule="evenodd" d="M24.3556 11.0218L24.4272 11.0213V24.1449L26.2923 22.2243C27.3179 21.1681 28.1798 20.3037 28.2075 20.3037C28.272 20.3037 30.6847 22.7891 30.6847 22.8558C30.6847 22.8836 29.0553 24.5887 27.0637 26.6453C25.072 28.7019 22.8715 30.9825 22.1735 31.7131C21.4754 32.4438 20.886 33.0227 20.8635 32.9993C20.8409 32.9762 20.8283 28.0278 20.8351 22.0029L20.8386 19.0326C20.821 13.1227 20.8489 0.269337 20.8958 0.269337C20.9248 0.269337 23.1588 2.5385 25.8603 5.31227C28.5616 8.08577 31.4533 11.0485 32.2862 11.896C33.1191 12.7438 33.8005 13.4625 33.8005 13.4937C33.8005 13.5245 33.761 13.5855 33.7128 13.6292C33.6647 13.673 33.2423 14.1247 32.7746 14.6332C32.3066 15.1419 31.7883 15.7042 31.6227 15.8827L31.3218 16.208L30.7949 15.6509C29.7752 14.5735 25.1086 9.62347 24.7384 9.22684L24.3642 8.82555L24.3556 11.0218ZM38.4062 8.85514V21.9787L38.4778 21.9782L38.4692 24.1744L38.0947 23.7732C37.7248 23.3765 33.0579 18.4263 32.0385 17.3491L31.5113 16.792L31.2104 17.1173C31.0451 17.2958 30.5267 17.8581 30.0587 18.3668C29.5908 18.8753 29.1687 19.327 29.1205 19.3708C29.0721 19.4145 29.0328 19.4755 29.0328 19.5063C29.0328 19.5375 29.7143 20.2562 30.5471 21.104C31.38 21.9515 34.2718 24.9142 36.973 27.6877C39.6745 30.4615 41.9086 32.7307 41.9376 32.7307C41.9844 32.7307 42.0122 19.8775 41.9948 13.9676L41.998 10.9971C42.0051 4.97223 41.9922 0.0237848 41.9698 0.000683018C41.9474 -0.0226783 41.358 0.556161 40.6599 1.28685C39.9618 2.01754 37.7613 4.29812 35.7697 6.3547C33.7781 8.41101 32.1486 10.1164 32.1486 10.1442C32.1486 10.2109 34.5611 12.6963 34.6259 12.6963C34.6536 12.6963 35.5154 11.8319 36.5411 10.7757L38.4062 8.85514Z" fill="#01B7E7"/>
</svg>
